<svg xmlns="http://www.w3.org/2000/svg" viewBox="0 0 500 500"><g id="freepik--Plants--inject-294"><g id="freepik--Plant--inject-294"><g id="freepik--Pot--inject-294"><g id="freepik--pot--inject-294"><path d="M475,369.62c10.31-10.64,16.36-39.2,6.31-47.64H430.17c-10.05,8.44-4,37,6.3,47.63l.28.29.35.35c.3.29.6.57.94.84l.24.2c.26.2.5.4.78.59a13,13,0,0,0,1.33.86c8.48,4.95,22.23,4.95,30.71,0h0a13.8,13.8,0,0,0,1.34-.86c.26-.18.49-.37.73-.56l.3-.24a11.75,11.75,0,0,0,.9-.81l.41-.4Z" style="fill:#ebebeb"></path><path d="M434.61,318.58c-11.67,6.82-11.67,17.87,0,24.68s30.6,6.82,42.27,0,11.68-17.86,0-24.68S446.28,311.77,434.61,318.58Z" style="fill:#f5f5f5"></path><path d="M440.23,321.86c-8.58,5-8.58,13.12,0,18.13s22.47,5,31,0,8.57-13.12,0-18.13S448.8,316.86,440.23,321.86Z" style="fill:#ebebeb"></path><path d="M471.27,330.46c-8.57-5-22.47-5-31,0a14.25,14.25,0,0,0-5.14,4.77,14.32,14.32,0,0,0,5.14,4.76c8.57,5,22.47,5,31,0a14.28,14.28,0,0,0,5.13-4.76A14.21,14.21,0,0,0,471.27,330.46Z" style="fill:#BE9C79"></path><path d="M471.27,330.46c-8.57-5-22.47-5-31,0a14.25,14.25,0,0,0-5.14,4.77,14.32,14.32,0,0,0,5.14,4.76c8.57,5,22.47,5,31,0a14.28,14.28,0,0,0,5.13-4.76A14.21,14.21,0,0,0,471.27,330.46Z" style="opacity:0.30000000000000004"></path></g><g id="freepik--plants--inject-294"><path d="M438.43,262l13.38,11.48-13.11-6.68a36.82,36.82,0,0,0,1.83,12.74,82,82,0,0,1,10.11,7.78l-10.08-4.44s-1,6.71,1.44,17.12c.64,2.72,3.46,8,5.23,11.9a43.31,43.31,0,0,0,2.77,5.25c.06.11.13.21.2.32q3.58-1.87,7.45-3.61c1.77-3.4,4.25-11.86,5.3-18.83,4-26.68-15.69-42.83-31.78-48.61A48.56,48.56,0,0,1,438.43,262Z" style="fill:#BE9C79"></path><path d="M438.43,262l13.38,11.48-13.11-6.68a36.82,36.82,0,0,0,1.83,12.74,82,82,0,0,1,10.11,7.78l-10.08-4.44s-1,6.71,1.44,17.12c.64,2.72,3.46,8,5.23,11.9a43.31,43.31,0,0,0,2.77,5.25c.06.11.13.21.2.32q3.58-1.87,7.45-3.61c1.77-3.4,4.25-11.86,5.3-18.83,4-26.68-15.69-42.83-31.78-48.61A48.56,48.56,0,0,1,438.43,262Z" style="fill:#fff;opacity:0.45"></path><path d="M449.93,263.53c2.71,2.94,4.21,6.74,5.34,10.51a55.22,55.22,0,0,1,2,11.69,50.2,50.2,0,0,1-3.83,23.16h0a.4.4,0,0,0,.2.51.39.39,0,0,0,.51-.21h0a50.91,50.91,0,0,0,3.5-23.49A55.37,55.37,0,0,0,455.45,274C454.27,270.21,452.69,266.43,449.93,263.53Z" style="fill:#fff"></path><path d="M496.14,272.47l0,0a217.85,217.85,0,0,0-11.35,23.9l-14.26,5,11.16,0-4.18,10.22-13.91,5.55,11.6-.17s-1.18,11.56-8.44,17.58c-4,3.32-5.93,3.72-7.68,3.05-2.14-.81-3.62-3.8-5.23-8.38s-1.66-14.37,1.15-24.4a29.16,29.16,0,0,1,3.42-7.61C467,283.39,486.13,274.09,496.14,272.47Z" style="fill:#BE9C79"></path><path d="M496.14,272.47l0,0a217.85,217.85,0,0,0-11.35,23.9l-14.26,5,11.16,0-4.18,10.22-13.91,5.55,11.6-.17s-1.18,11.56-8.44,17.58c-4,3.32-5.93,3.72-7.68,3.05-2.14-.81-3.62-3.8-5.23-8.38s-1.66-14.37,1.15-24.4a29.16,29.16,0,0,1,3.42-7.61C467,283.39,486.13,274.09,496.14,272.47Z" style="fill:#fff;opacity:0.65"></path><path d="M481.64,280a60.59,60.59,0,0,0-17.91,17.71,40.43,40.43,0,0,0-5.15,11.61,38.38,38.38,0,0,0-1.06,12.62,0,0,0,0,0,0,0s0,0,0,0a50.17,50.17,0,0,1,1.77-12.4A45.61,45.61,0,0,1,464.29,298a61.84,61.84,0,0,1,17.39-18,0,0,0,0,0,0-.06S481.66,280,481.64,280Z" style="fill:#fff"></path><path d="M405,277.44h0a35.2,35.2,0,0,1,4.42.21,70.44,70.44,0,0,1,16.91,4.11c2,.75,4.05,1.61,6,2.56,1,.48,2,1,3,1.5a49.14,49.14,0,0,1,12.95,9.8,31,31,0,0,1,4.47,6.27c.15.29.32.58.47.88h0c.38.77.72,1.53,1,2.28a42.29,42.29,0,0,1,3.81,20.81c-.18,5.05-1.89,10.81-2.87,11.76a2.59,2.59,0,0,1-.44.32c-1.44.92-3.73.38-8-2C438.2,331.14,434.83,319,434.83,319l11.91-2-15.29-3.05-6.2-9.68,11.42-2.08-15.53-2.39A232,232,0,0,0,405,277.46l0,0Z" style="fill:#BE9C79"></path><path d="M405,277.44h0a35.2,35.2,0,0,1,4.42.21,70.44,70.44,0,0,1,16.91,4.11c2,.75,4.05,1.61,6,2.56,1,.48,2,1,3,1.5a49.14,49.14,0,0,1,12.95,9.8,31,31,0,0,1,4.47,6.27c.15.29.32.58.47.88h0c.38.77.72,1.53,1,2.28a42.29,42.29,0,0,1,3.81,20.81c-.18,5.05-1.89,10.81-2.87,11.76a2.59,2.59,0,0,1-.44.32c-1.44.92-3.73.38-8-2C438.2,331.14,434.83,319,434.83,319l11.91-2-15.29-3.05-6.2-9.68,11.42-2.08-15.53-2.39A232,232,0,0,0,405,277.46l0,0Z" style="fill:#fff;opacity:0.65"></path><path d="M409.42,277.65a70.44,70.44,0,0,1,16.91,4.11c2,.75,4.05,1.61,6,2.56,1,.48,2,1,3,1.5a49.14,49.14,0,0,1,12.95,9.8,31,31,0,0,1,4.47,6.27c.15.29.32.58.47.88h0c.38.77.72,1.53,1,2.28a42.29,42.29,0,0,1,3.81,20.81c-.18,5.05-1.89,10.81-2.87,11.76a2.59,2.59,0,0,1-.44.32,2.7,2.7,0,0,1-.95.35c1.06-7.82-2.79-27.64-8.61-35.8-6.06-8.48-20.43-20.78-40.18-25v0A36.54,36.54,0,0,1,409.42,277.65Z" style="fill:#BE9C79"></path><path d="M409.42,277.65a70.44,70.44,0,0,1,16.91,4.11c2,.75,4.05,1.61,6,2.56,1,.48,2,1,3,1.5a49.14,49.14,0,0,1,12.95,9.8,31,31,0,0,1,4.47,6.27c.15.29.32.58.47.88h0c.38.77.72,1.53,1,2.28a42.29,42.29,0,0,1,3.81,20.81c-.18,5.05-1.89,10.81-2.87,11.76a2.59,2.59,0,0,1-.44.32,2.7,2.7,0,0,1-.95.35c1.06-7.82-2.79-27.64-8.61-35.8-6.06-8.48-20.43-20.78-40.18-25v0A36.54,36.54,0,0,1,409.42,277.65Z" style="fill:#fff;opacity:0.25"></path><path d="M453.86,338.29A67.37,67.37,0,0,0,452.74,321,56,56,0,0,0,447,304.6c-2.92-5.1-7.13-9.27-11.61-13a65,65,0,0,0-14.89-8.93.05.05,0,0,0-.07,0,0,0,0,0,0,0,.06,85.61,85.61,0,0,1,14.32,9.59,62.32,62.32,0,0,1,6.29,5.86,38,38,0,0,1,5.26,6.75,55.18,55.18,0,0,1,5.93,16.1,66.57,66.57,0,0,1,1.51,17.19s0,0,0,0A0,0,0,0,0,453.86,338.29Z" style="fill:#fff"></path></g></g></g><g id="freepik--plant--inject-294"><g id="freepik--pot--inject-294"><g id="freepik--pot--inject-294"><path d="M25,369.62C14.67,359,8.62,330.42,18.67,322H69.83c10,8.44,4,37-6.3,47.63l-.28.29-.35.35c-.3.29-.6.57-.94.84l-.24.2c-.26.2-.5.4-.78.59a13,13,0,0,1-1.33.86c-8.48,4.95-22.23,4.95-30.71,0h0a13.8,13.8,0,0,1-1.34-.86c-.26-.18-.49-.37-.73-.56s-.2-.15-.3-.24a11.75,11.75,0,0,1-.9-.81l-.41-.4Z" style="fill:#ebebeb"></path><path d="M65.39,318.58c11.67,6.82,11.67,17.87,0,24.68s-30.6,6.82-42.27,0-11.68-17.86,0-24.68S53.72,311.77,65.39,318.58Z" style="fill:#f5f5f5"></path><path d="M59.77,321.86c8.58,5,8.58,13.12,0,18.13s-22.47,5-31,0-8.57-13.12,0-18.13S51.2,316.86,59.77,321.86Z" style="fill:#ebebeb"></path><path d="M28.73,330.46c8.57-5,22.47-5,31,0a14.25,14.25,0,0,1,5.14,4.77A14.32,14.32,0,0,1,59.77,340c-8.57,5-22.47,5-31,0a14.28,14.28,0,0,1-5.13-4.76A14.21,14.21,0,0,1,28.73,330.46Z" style="fill:#BE9C79"></path><path d="M28.73,330.46c8.57-5,22.47-5,31,0a14.25,14.25,0,0,1,5.14,4.77A14.32,14.32,0,0,1,59.77,340c-8.57,5-22.47,5-31,0a14.28,14.28,0,0,1-5.13-4.76A14.21,14.21,0,0,1,28.73,330.46Z" style="opacity:0.30000000000000004"></path></g><g id="freepik--plants--inject-294"><path d="M61.57,262,48.19,273.44l13.11-6.68a36.82,36.82,0,0,1-1.83,12.74,82,82,0,0,0-10.11,7.78l10.08-4.44s1,6.71-1.44,17.12c-.64,2.72-3.46,8-5.23,11.9A43.31,43.31,0,0,1,50,317.11c-.06.11-.13.21-.2.32q-3.59-1.87-7.45-3.61c-1.77-3.4-4.25-11.86-5.3-18.83-4-26.68,15.69-42.83,31.78-48.61A48.56,48.56,0,0,0,61.57,262Z" style="fill:#BE9C79"></path><path d="M61.57,262,48.19,273.44l13.11-6.68a36.82,36.82,0,0,1-1.83,12.74,82,82,0,0,0-10.11,7.78l10.08-4.44s1,6.71-1.44,17.12c-.64,2.72-3.46,8-5.23,11.9A43.31,43.31,0,0,1,50,317.11c-.06.11-.13.21-.2.32q-3.59-1.87-7.45-3.61c-1.77-3.4-4.25-11.86-5.3-18.83-4-26.68,15.69-42.83,31.78-48.61A48.56,48.56,0,0,0,61.57,262Z" style="fill:#fff;opacity:0.45"></path><path d="M50.07,263.53c-2.71,2.94-4.21,6.74-5.34,10.51a55.22,55.22,0,0,0-2,11.69,50.2,50.2,0,0,0,3.83,23.16h0a.4.4,0,0,1-.2.51.39.39,0,0,1-.51-.21h0a50.91,50.91,0,0,1-3.5-23.49A55.37,55.37,0,0,1,44.55,274C45.73,270.21,47.31,266.43,50.07,263.53Z" style="fill:#fff"></path><path d="M3.86,272.47l0,0a217.85,217.85,0,0,1,11.35,23.9l14.26,5-11.16,0,4.18,10.22,13.91,5.55-11.6-.17s1.18,11.56,8.44,17.58c4,3.32,5.93,3.72,7.68,3.05,2.14-.81,3.62-3.8,5.23-8.38s1.66-14.37-1.15-24.4a29.16,29.16,0,0,0-3.42-7.61C33,283.39,13.87,274.09,3.86,272.47Z" style="fill:#BE9C79"></path><path d="M3.86,272.47l0,0a217.85,217.85,0,0,1,11.35,23.9l14.26,5-11.16,0,4.18,10.22,13.91,5.55-11.6-.17s1.18,11.56,8.44,17.58c4,3.32,5.93,3.72,7.68,3.05,2.14-.81,3.62-3.8,5.23-8.38s1.66-14.37-1.15-24.4a29.16,29.16,0,0,0-3.42-7.61C33,283.39,13.87,274.09,3.86,272.47Z" style="fill:#fff;opacity:0.65"></path><path d="M18.36,280a60.59,60.59,0,0,1,17.91,17.71,40.43,40.43,0,0,1,5.15,11.61,38.38,38.38,0,0,1,1.06,12.62,0,0,0,0,1,0,0s0,0,0,0a50.17,50.17,0,0,0-1.77-12.4A45.61,45.61,0,0,0,35.71,298a61.84,61.84,0,0,0-17.39-18,0,0,0,0,1,0-.06S18.34,280,18.36,280Z" style="fill:#fff"></path><path d="M95,277.44h0a35.27,35.27,0,0,0-4.43.21,70.44,70.44,0,0,0-16.91,4.11c-2,.75-4,1.61-6,2.56-1,.48-2,1-3,1.5a49.14,49.14,0,0,0-13,9.8,31,31,0,0,0-4.47,6.27c-.15.29-.32.58-.47.88h0c-.38.77-.72,1.53-1,2.28a42.29,42.29,0,0,0-3.81,20.81c.18,5.05,1.89,10.81,2.87,11.76a2.59,2.59,0,0,0,.44.32c1.44.92,3.73.38,8-2C61.8,331.14,65.17,319,65.17,319l-11.91-2,15.29-3.05,6.2-9.68-11.42-2.08,15.53-2.39A232,232,0,0,1,95,277.46l0,0Z" style="fill:#BE9C79"></path><path d="M95,277.44h0a35.27,35.27,0,0,0-4.43.21,70.44,70.44,0,0,0-16.91,4.11c-2,.75-4,1.61-6,2.56-1,.48-2,1-3,1.5a49.14,49.14,0,0,0-13,9.8,31,31,0,0,0-4.47,6.27c-.15.29-.32.58-.47.88h0c-.38.77-.72,1.53-1,2.28a42.29,42.29,0,0,0-3.81,20.81c.18,5.05,1.89,10.81,2.87,11.76a2.59,2.59,0,0,0,.44.32c1.44.92,3.73.38,8-2C61.8,331.14,65.17,319,65.17,319l-11.91-2,15.29-3.05,6.2-9.68-11.42-2.08,15.53-2.39A232,232,0,0,1,95,277.46l0,0Z" style="fill:#fff;opacity:0.65"></path><path d="M90.58,277.65a70.44,70.44,0,0,0-16.91,4.11c-2,.75-4,1.61-6,2.56-1,.48-2,1-3,1.5a49.14,49.14,0,0,0-13,9.8,31,31,0,0,0-4.47,6.27c-.15.29-.32.58-.47.88h0c-.38.77-.72,1.53-1,2.28a42.29,42.29,0,0,0-3.81,20.81c.18,5.05,1.89,10.81,2.87,11.76a2.59,2.59,0,0,0,.44.32,2.7,2.7,0,0,0,.95.35c-1.06-7.82,2.79-27.64,8.61-35.8,6.06-8.48,20.43-20.78,40.18-25v0A36.54,36.54,0,0,0,90.58,277.65Z" style="fill:#BE9C79"></path><path d="M90.58,277.65a70.44,70.44,0,0,0-16.91,4.11c-2,.75-4,1.61-6,2.56-1,.48-2,1-3,1.5a49.14,49.14,0,0,0-13,9.8,31,31,0,0,0-4.47,6.27c-.15.29-.32.58-.47.88h0c-.38.77-.72,1.53-1,2.28a42.29,42.29,0,0,0-3.81,20.81c.18,5.05,1.89,10.81,2.87,11.76a2.59,2.59,0,0,0,.44.32,2.7,2.7,0,0,0,.95.35c-1.06-7.82,2.79-27.64,8.61-35.8,6.06-8.48,20.43-20.78,40.18-25v0A36.54,36.54,0,0,0,90.58,277.65Z" style="fill:#fff;opacity:0.25"></path><path d="M46.14,338.29A67.37,67.37,0,0,1,47.26,321,56,56,0,0,1,53,304.6c2.92-5.1,7.13-9.27,11.61-13a65,65,0,0,1,14.89-8.93.05.05,0,0,1,.07,0,0,0,0,0,1,0,.06,85.61,85.61,0,0,0-14.32,9.59,62.32,62.32,0,0,0-6.29,5.86A38,38,0,0,0,53.67,305a55.18,55.18,0,0,0-5.93,16.1,66.57,66.57,0,0,0-1.51,17.19s0,0,0,0A0,0,0,0,1,46.14,338.29Z" style="fill:#fff"></path></g></g></g></g><g id="freepik--character-3--inject-294"><g id="freepik--Chair--inject-294"><path d="M396.45,285.19V412.42a1.61,1.61,0,0,0,.89,1.46,3.59,3.59,0,0,0,3.37,0,1.63,1.63,0,0,0,.9-1.46V285.19Z" style="fill:#37474f"></path><path d="M399,383.39c-10.06,0-20.11-2.21-27.76-6.63s-11.79-10.28-11.79-16.6,4.19-12.22,11.79-16.6c15.31-8.84,40.21-8.84,55.52,0,7.6,4.38,11.79,10.28,11.79,16.6s-4.19,12.21-11.79,16.6h0C419.14,381.18,409.08,383.39,399,383.39Zm0-44.5c-9.69,0-19.38,2.13-26.76,6.39-7,4-10.8,9.3-10.8,14.88S365.31,371,372.27,375c14.75,8.52,38.76,8.52,53.52,0h0c7-4,10.79-9.3,10.79-14.87s-3.83-10.86-10.79-14.88C418.41,341,408.72,338.89,399,338.89Z" style="fill:#37474f"></path><path d="M376.47,277l-21.89,120.3h0a1.55,1.55,0,0,0,.89,1.56,3.57,3.57,0,0,0,3.36,0,1.68,1.68,0,0,0,.89-1.35L381.64,277Z" style="fill:#37474f"></path><path d="M443.62,397.33,421.82,277.6l-.1-.57h-5.17l21.94,120.53a1.71,1.71,0,0,0,.88,1.33,3.59,3.59,0,0,0,3.37,0A1.56,1.56,0,0,0,443.62,397.33Z" style="fill:#37474f"></path><path d="M374.05,251.82c13.59-7.85,35.63-7.85,49.22,0,6.79,3.92,10.19,9.06,10.18,14.2v6.32c0,5.14-3.39,10.28-10.18,14.21-13.59,7.85-35.63,7.85-49.22,0-6.8-3.93-10.19-9.07-10.19-14.21V266C363.86,260.88,367.25,255.74,374.05,251.82Z" style="fill:#263238"></path><path d="M374.05,248.75c13.59-7.85,35.63-7.85,49.22,0,6.79,3.92,10.19,9.06,10.18,14.21v6.31c0,5.14-3.39,10.29-10.18,14.21-13.59,7.85-35.63,7.85-49.22,0-6.8-3.92-10.19-9.07-10.19-14.21V263C363.86,257.81,367.25,252.67,374.05,248.75Z" style="fill:#BE9C79"></path><path d="M374.05,248.75c13.59-7.85,35.63-7.85,49.22,0,6.79,3.92,10.19,9.06,10.18,14.21v6.31c0,5.14-3.39,10.29-10.18,14.21-13.59,7.85-35.63,7.85-49.22,0-6.8-3.92-10.19-9.07-10.19-14.21V263C363.86,257.81,367.25,252.67,374.05,248.75Z" style="opacity:0.5"></path><ellipse cx="398.66" cy="262.96" rx="34.8" ry="20.09" style="fill:#BE9C79"></ellipse><ellipse cx="398.66" cy="262.96" rx="34.8" ry="20.09" style="opacity:0.30000000000000004"></ellipse></g><g id="freepik--Character--inject-294"><g id="freepik--Top--inject-294"><g id="freepik--Arm--inject-294"><path d="M311.89,153.42a4.87,4.87,0,0,1,2.51-.34,15.05,15.05,0,0,1,2.94.73c1.48.46,4.44,1.42,6,1.77a10.83,10.83,0,0,0,4.15.45c.46-.08,1.4-.39.69-.89a20.05,20.05,0,0,1-2.7-2,4.07,4.07,0,0,1-1.34-3,1.37,1.37,0,0,1,.36-.93c.34-.33.63-.19,1,0a8.49,8.49,0,0,0,1.11.49l2.31,1c4.47,1.91,10.32,3.59,13.33,7.55a29.19,29.19,0,0,1,4.15,8.07C348,171.13,354,184.4,354,184.4s11.76-11.18,17.41-17c6.26-6.45,9.3-10.14,14.51-12.54a23.72,23.72,0,0,1,9.46-2.18l-11.75,31.37S368.27,197,359.82,203.3c-7.32,5.48-11.17,5.5-13.18,4.12-3.34-2.3-5-3.39-8.89-25.87-.28-1.59-.71-3.15-1.07-4.72-.88-3.24-2.36-6.34-3.82-6.6a66,66,0,0,1-10.18-3.11,20.72,20.72,0,0,1-4.71-2.63,6.45,6.45,0,0,1-1.92-1.79c-.33-.71-.28-1.6-.76-2.25-.32-.45-.8-.74-1.11-1.22-.63-1-1-2.27-2-3-.55-.38-1.34-.62-1.48-1.29a1.41,1.41,0,0,1,.76-1.32A3.3,3.3,0,0,1,311.89,153.42Z" style="fill:#9e6767"></path><path d="M354,184.4c2.59,5,2.71,12,2.71,12s2.22-7.88-1-13.61Z" style="fill:#874c4c"></path><path d="M330.93,158.12a15.06,15.06,0,0,0,6,5.83,8.84,8.84,0,0,1-4.06-2C331.17,160.27,330.93,159.2,330.93,158.12Z" style="fill:#874c4c"></path></g><path d="M382.14,208.18a3.46,3.46,0,0,1-1.09-3c.52-4.74.24-6.06-.14-11.38-7.88-9-4.92-16.33-3.45-20.4,3.63-10,17.91-20.68,17.91-20.68h5.12a176.25,176.25,0,0,1,19.1,1.65,82.35,82.35,0,0,1,11.57,2.87,52.32,52.32,0,0,0-1.37,21.26c.6,4.87,4.75,11.74,4.75,11.74s-2.83,11.87-2.84,17.53a3.63,3.63,0,0,1-1.41,2.82c-.5,2-.68,3.66-1.18,5.7C401.39,223.15,386.33,215.81,382.14,208.18Z" style="fill:#BE9C79"></path><path d="M395.38,193.93s4.48,5.6,14.14,4,11.56-8.9,11.56-8.9.57,9.38-11,11.26C398.74,202.13,395.38,193.93,395.38,193.93Z" style="opacity:0.1"></path><path d="M428.83,111.79a5.55,5.55,0,0,0,4.69-1.88,2.76,2.76,0,0,1,1.36-.85,6.17,6.17,0,0,1,1.26.18,7.48,7.48,0,0,0,2.75-.21,5.41,5.41,0,0,0,1.74-1,5.63,5.63,0,0,0,1.94-3.45,8.3,8.3,0,0,0-1.24-4.63c-.34-.68-.36-.11-.15-.79s.63-.87.76-1.48a7.11,7.11,0,0,0-.76-4.75,6.41,6.41,0,0,0-3.42-3c-1.42-.57-3.45-.15-4.55-1.37A19,19,0,0,1,432,86.83a5.35,5.35,0,0,0-.94-1.07,6,6,0,0,0-2.9-1.53,7.75,7.75,0,0,0-5.26,1.31c-.71.45-1.27,1.12-2,1.55a4.08,4.08,0,0,1-2.3.21,4.07,4.07,0,0,0-2.29.51,3.31,3.31,0,0,0-1.4,2.48c0,1.08.56,2.12.32,3.23s-1,2.07-1.29,3.22a6.16,6.16,0,0,0,.09,3.43,14.2,14.2,0,0,0,4.8,6.69c.77.58,1.53,1.12,2.25,1.77a10.51,10.51,0,0,0,1,.83A15.48,15.48,0,0,0,428.83,111.79Z" style="fill:#263238"></path><path d="M414.42,94.23c.37-1,0-1.4,1.57-1.66s6.32.17,12.54,5.2,6.63,10.47,6.35,11.29c-.41,1.23-1.22.36-1.67,1.78-.5,1.58-1,1.39-1.55,1-1.1-.72-16.77-14.19-17.6-15.48S414,95.22,414.42,94.23Z" style="fill:#BE9C79"></path><path d="M431.47,134.42a2.37,2.37,0,0,1-1,.77c-.7.33-1.32.58-1.64,1.28s-.05,1.73-.34,2.47c-.43,1.11-2.18,1.11-3.13,1.45a2.47,2.47,0,0,0-1.42,1.15c-.44.78-.17,1.59-1,2.13-.6.41-1.43.39-2.06.83s-.77,1-1.21,1.58c-1.79,2.3-5.9-.41-7.39-1.83A19.23,19.23,0,0,1,408,138c-1.53-3.55-1-7.82-1.91-11.56-.78-3.06-3.31-5.59-5.64-7.58a25.13,25.13,0,0,0-3.4-2.49c-.38-.22-.73-.5-1.14-.69a4,4,0,0,0-1.25-.18,6.23,6.23,0,0,0-2.53.52,17.92,17.92,0,0,1-1.87.64,6.71,6.71,0,0,1-2.27-.2c-1.2-.28-2.75-1.36-2.64-2.78a1.5,1.5,0,0,0-.2,1.79,4.69,4.69,0,0,1,.58,2.14,2.47,2.47,0,0,1-1.71,2.22c-1.7.35-2.67-.7-2.49-1.89a1.14,1.14,0,0,0,2.23-.42c0-1.33-1.2-1.78-2-3.11-.85-1.5-1.14-2.71.07-3.93s2.67-1.36,2.49-3.25c-.1-1-.81-1.9-.83-3a3.67,3.67,0,0,1,1.34-2.74c1.11-.93,2.62-1.2,3.87-1.82a7.39,7.39,0,0,0,2-1.29c.53-.59.53-1.49,1.13-2.07,1.22-1.18,3.34-.23,4.89-.91,1.09-.46,1.74-1.66,2.84-2.09,1.61-.62,3.37.63,5.09.48a20,20,0,0,0,2.47-.66,7.65,7.65,0,0,1,2.9,0c1,.27,1.22,1.43,2,2s.83-.13,1.76-.49a5.52,5.52,0,0,1,5.49,1.42,8.34,8.34,0,0,1,.76.93c.2.28.28.6.48.87A3.09,3.09,0,0,0,422,99c1.17.43,2.43.46,3.62.78,1.58.43,2.55,2.1,3.13,3.51a8.31,8.31,0,0,0,.45,1.11,6.14,6.14,0,0,0,1,1.5c.48.48,1,.89,1.5,1.37a6.22,6.22,0,0,1,1.62,2.59c.28,1-.18,1.8,0,2.74.28,1.77,2.26,2.77,2.32,4.67s-1.93,2.8-1.9,4.47c0,1.83,2,3.78.26,5.45-1.18,1.13-2.75,1.53-2.41,3.5C431.79,132,432.19,133.42,431.47,134.42Z" style="fill:#263238"></path><path d="M394.12,105.09c-4.2,1.77-7.47,4.35-7.42,14.07,0,2-1,4.26-1.2,7-.83,13,4.05,17.77,6.3,18.84s5.19,1.38,8.56,1.41l.53,8.4s-7,9.22-7.5,16.51c18.12-2.49,26.26-12.62,26.26-12.62V136.45a4.73,4.73,0,0,0,4.33.76c5.36-2.15,6.9-8.55,4.27-11.36s-6.06-2.83-8.55.06c0,0,2.14-11.75-5.22-17.3C405.85,102.1,399.89,102.65,394.12,105.09Z" style="fill:#9e6767"></path><path d="M404.24,134.32a3.08,3.08,0,0,1-2.49,3.86,3.69,3.69,0,0,1-4.25-2.53Z" style="fill:#874c4c"></path><path d="M400.69,138.22a2.68,2.68,0,0,1,2.71-2.81,3.1,3.1,0,0,1,.92.12,3.11,3.11,0,0,1-2.57,2.65A3.15,3.15,0,0,1,400.69,138.22Z" style="fill:#f28f8f"></path><path d="M392.86,122.88a1.85,1.85,0,1,1-1.72-2A1.85,1.85,0,0,1,392.86,122.88Z" style="fill:#263238"></path><path d="M406.27,124.18a1.85,1.85,0,1,1-1.72-2A1.85,1.85,0,0,1,406.27,124.18Z" style="fill:#263238"></path><polygon points="397.95 121.39 396.92 131.51 391.43 130 397.95 121.39" style="fill:#874c4c"></polygon><path d="M400.36,146.38c5.47-.44,13.84-2,17.48-8a12,12,0,0,1-3.09,6.09c-3.68,3.44-14.2,4.85-14.2,4.85Z" style="fill:#874c4c"></path><path d="M404.38,117.59l4,3.19a2.49,2.49,0,0,0-.48-3.51A2.55,2.55,0,0,0,404.38,117.59Z" style="fill:#263238"></path><path d="M389.07,118.7l4.78-1.55a2.67,2.67,0,0,0-3.28-1.59A2.39,2.39,0,0,0,389.07,118.7Z" style="fill:#263238"></path><path d="M422.34,123.51c-.1.3-.64.57-.9.76a7.62,7.62,0,0,0-1.73,1.64,2.43,2.43,0,0,0-.49,1.69,6.48,6.48,0,0,1,.16,1.22c-.1.94-1.18,1.19-1.16,2.21a3.69,3.69,0,0,0,.29,1.22,3,3,0,0,1,.24,1.38,2.45,2.45,0,0,1-1.64,2.12,2.19,2.19,0,0,1-2.3-.76,1.31,1.31,0,0,0,2-1.18,3.79,3.79,0,0,0-.55-1.56,2.06,2.06,0,0,1-.14-1.38c.14-1,.39-1.53-.36-2.39-.56-.64-1.31-1.36-1.3-2.26,0-1.11.78-1.71,1.13-2.7.15-.43.33-1.28-.05-1.65s-1.21-.18-1.61,0a1.48,1.48,0,0,0-.89,1.15c0,.53.23,1,.16,1.59a2.37,2.37,0,0,1-1.73,2c-.34.15-.63.24-.71.62a1.26,1.26,0,0,0,.35,1,1.41,1.41,0,0,1-.85-1.38c.07-.81.63-1.09,1.22-1.51,1.29-.94-.34-2.33-.26-3.44.12-1.6,2-2.26,2-3.84,0-1-.7-1.88-1-2.82s-.42-1.66-.61-2.5a5.69,5.69,0,0,0-2.94-4.13c-2.3-1.16-4.64-.37-6.24.1a2,2,0,0,1-.35,1.07,3.64,3.64,0,0,1-2.95,1.12,2.83,2.83,0,0,0,.62,1.87,1.92,1.92,0,0,1,.27,1.9c-.65,1.09-2.71.37-3.36,1.46a1.07,1.07,0,0,0,.2,1.29,1.81,1.81,0,0,1,.07-3.29c.44-.19,1-.27,1.19-.72a.8.8,0,0,0,0-.53c-.24-.81-1.11-1.23-1.84-1.65s-1.5-1.13-1.31-2,1.3-1.15,2.14-1.54a4.16,4.16,0,0,0-4.07-1c-3.4.73-5.28,4.5-5.28,4.5.65-6.79,8.47-11.64,16.07-10.18A26.69,26.69,0,0,1,416.94,108a33.43,33.43,0,0,1,4.12,5.59,10,10,0,0,1,1.42,3.1,10.27,10.27,0,0,1,.39,3.49A15.29,15.29,0,0,1,422.34,123.51Z" style="fill:#263238"></path></g><g id="freepik--Bottom--inject-294"><path d="M373.52,308.9c4.83-1,9.28,2.63,9.76,3.86.66,1.65.71,5.08-1,9.43-1.48,3.77-1.61,9.55-1.25,13.42.57,6.1,2.85,11.49,0,15.9-4.44,6.86-15.51,13.34-15.88,6-.27-5.47.36-9.75.89-15.29,1-11,1.69-22,1.69-22Z" style="fill:#263238"></path><path d="M381.53,310.94c.47,3.59-1.12,12.33-5.45,20.68-4.24,8.19-10.32,18.9-11.27,24.6-.31-2.57.45-7.37,1-11.62l0-.28.09-.74,0-.34c0-.31.07-.62.1-.93v-.06c.32-3.45.61-6.89.85-10,.2-2.48.36-4.74.49-6.61.07-.94.12-1.78.17-2.5q0-.54.06-1c.08-1.2.12-1.89.12-1.89l5.79-11.37c.32-.06.63-.09.94-.13A10.76,10.76,0,0,1,381.53,310.94Z" style="opacity:0.15"></path><path d="M375.64,317.51a106.26,106.26,0,0,0-.14,16.1c.49,5.85-.48,9.78-2.32,12.54-2,3-7.5,5-7.26-1,.18-4.23,1.81-24.83,1.81-24.83Z" style="fill:#9e6767"></path><path d="M367.36,348.79c-.91-.46-1.52-1.58-1.44-3.69,0-1,.16-2.75.31-5,.25-2.73.47-5.42.66-7.89s.36-4.74.49-6.61c.07-.94.12-1.78.17-2.5q0-.54.06-1c.08-1.18.12-1.85.12-1.88h0l7.91-2.76a108.85,108.85,0,0,0-.2,15.34C372.78,337.94,369.58,343.8,367.36,348.79Z" style="fill:#874c4c"></path><path d="M328.9,259.88c3.41-4.84,5.8-6.75,20.8-17.41a357.33,357.33,0,0,1,30.37-18.86l17.47,19.78-16.23,15.3L356.68,273.9a33,33,0,0,1,6.35,9.87c.84,2,8.43,24.06,8.43,24.06l-12.86,14.8s-18-28.27-25.87-42C325.32,267.67,327.62,261.7,328.9,259.88Z" style="fill:#9e6767"></path><path d="M381.57,214.22c-.95,6.11-7,9.54-17.46,15.8s-31.37,21.52-35.83,28.4c-4,6.12-2.54,11.9,2.65,22s28.55,44.43,28.55,44.43l12.94-15.28s-6.5-23-9.89-29.14c-2.65-4.84-4.82-6.24-4.82-6.24l37.67-19.08,6.83-21.89Z" style="fill:#37474f"></path><path d="M359.48,324.82l12.94-15.28s-6.5-23-9.89-29.14a26.62,26.62,0,0,0-3-4.53c-3.09,4.45-4.89,6.93-6.18,17.72-.58,4.89-1.16,12.62-1.63,19.61C356.12,319.88,359.48,324.82,359.48,324.82Z" style="fill:#263238"></path><path d="M380.9,230.62c0,8.81.67,15.46.67,15.46L361.2,272.39l34.18-17.31Z" style="fill:#263238"></path><path d="M354.56,243.83a105.2,105.2,0,0,0-13.21,10.48,41.89,41.89,0,0,0-5.47,6.24,15.76,15.76,0,0,0-1.88,3.52,5.47,5.47,0,0,0-.33,1.78,11,11,0,0,0,.23,1.94,42.75,42.75,0,0,0,2.65,7.83c1.08,2.58,2.29,5.12,3.52,7.65q3.75,7.56,7.75,15.05a146.38,146.38,0,0,1-9-14.4c-1.38-2.48-2.65-5-3.83-7.62a41.33,41.33,0,0,1-2.81-8.18,12.71,12.71,0,0,1-.25-2.26,7.22,7.22,0,0,1,.45-2.36,15.87,15.87,0,0,1,2.16-3.9,38.67,38.67,0,0,1,5.9-6.28A73.34,73.34,0,0,1,354.56,243.83Z" style="fill:#263238"></path><path d="M364.18,363.8c1.18-.16,1.39,1.87,2.28,4.39a13.29,13.29,0,0,1,.89,7.69c-.76,3.32-4.91,4.93-8.1,8.81-6.26,7.61-6.26,13.07-11.32,16-8.21,4.74-16.15,3.33-19,1.7-7-4.06-2.7-5.6,2.05-9.68a43.74,43.74,0,0,0,8-9.29Z" style="fill:#263238"></path><path d="M334.45,389.33c.73-1,2.93-3.78,3.81-5,4.05-5.62,6.85-12.77,9-18.68,1.19-3.23,2.6-11.78,3.85-20.8h0s5.6-54.34,7.61-62.58,27.83-34.8,27.83-34.8-5-10.36-3.8-34.92c12.91,8.37,29.43,8.9,47.87,5.25,2,9.09,6.55,18.43,4.28,28.13s-11.65,18.3-23.95,27c-10.17,7.21-23.86,17.17-26.72,19.24-2.5,1.81-4,3.92-3.8,9.87.16,6.16,0,15.61-8.88,35.83-3,7.91-6.57,17.44-7.41,21.78-.42,2.16-.2,3.07.12,5.52a5.94,5.94,0,0,1-1.12,3.93c-.85,1.26-1.76,2.45-2.73,3.63-2.59,3.13-7.42,10.13-10.72,15.13-4.75,7.2-13.4,6.57-15.58,4.83C333.05,391.82,333.81,390.21,334.45,389.33Z" style="fill:#9e6767"></path><path d="M431.35,216.24c1.17,5.72,5,12.61,5.17,20.31.15,5.82.06,15.1-11.47,25.87S384.89,293,383.7,295.89s-2.06,25.64-4.61,32.33c-4.74,12.43-11.92,28-11.92,28-7.54,2.09-13.64,1.49-18.22-2,0,0,3.57-30.44,5-43.29,2.38-22,2.54-28.81,6.56-34.42s5.45-7.37,5.45-7.37l18.81-22.52s-2.32-5.59-3.83-16c-1-7,.67-16.4.67-16.4S408.33,224,431.35,216.24Z" style="fill:#37474f"></path><path d="M426.38,243.36l.14-.4c4-6.67,2.6-12.9.75-21-.31-1.38-.63-2.81-.94-4.29l-.86.2c.31,1.48.63,2.91.94,4.28,1.77,7.78,3.11,13.77-.48,20.07-6.12-2.95-5.2-12.8-4.63-18.79.09-1,.18-1.87.22-2.62l-.88-.05c0,.73-.13,1.61-.22,2.59-.59,6.21-1.56,16.42,5,19.65a23,23,0,0,1-2.31,3.06c-4.64,5.24-16.43,16.38-26.82,26.22-8.22,7.76-15.32,14.47-16.87,16.38-2,2.41-2.87,9.5-4,18.48a200.39,200.39,0,0,1-3.91,23.14,119.69,119.69,0,0,1-11,27.14l1.06-.09a120.29,120.29,0,0,0,10.78-26.83,201.44,201.44,0,0,0,3.93-23.24c1.09-8.5,2-15.83,3.83-18,1.52-1.86,8.59-8.55,16.78-16.3,10.41-9.85,22.22-21,26.88-26.28a24.72,24.72,0,0,0,2.49-3.28Z" style="fill:#263238"></path><path d="M411.06,223.72a30,30,0,0,1-.09,8.52,43.11,43.11,0,0,1-2.08,8.3,45.55,45.55,0,0,1-3.66,7.73,37.36,37.36,0,0,1-5.1,6.81c1.37-2.49,2.69-5,3.88-7.46a80.34,80.34,0,0,0,3.21-7.68,70.76,70.76,0,0,0,2.39-8A69.85,69.85,0,0,0,411.06,223.72Z" style="fill:#263238"></path><path d="M413,223.72a27.54,27.54,0,0,1,1.93,7,46,46,0,0,1,.53,7.22,49.84,49.84,0,0,1-.59,7.21,28.63,28.63,0,0,1-1.87,7c.24-2.39.38-4.75.5-7.12s.19-4.72.19-7.07,0-4.71-.13-7.07S413.29,226.12,413,223.72Z" style="fill:#263238"></path><path d="M378.39,264.61c-2.81,4-5.76,7.85-8.54,11.79-1.37,2-2.71,4-3.86,6.06a24.55,24.55,0,0,0-2.64,6.49c-.45,2.31-.9,4.73-1.31,7.11l-1.29,7.15q-1.28,7.17-2.81,14.3.45-7.29,1.39-14.52c.64-4.83,1.32-9.6,2.32-14.43a24,24,0,0,1,2.93-6.91,55.63,55.63,0,0,1,4.21-6C371.8,271.77,375.08,268.18,378.39,264.61Z" style="fill:#263238"></path><path d="M349.31,351.19c2.87,2.82,14.5,4.54,19.05,2.42l-2.44,6.25s-1.37,1.89-8.93,1.22-8.44-3.65-8.44-3.65Z" style="fill:#263238"></path><path d="M430.29,210.56c-4.21,2.42-11.49,5.25-23,5.25s-21.72-4.33-25.12-7.63l-.57,6s7.59,7.56,25.49,7.86,24.29-5.84,24.29-5.84Z" style="fill:#455a64"></path></g><g id="freepik--arm--inject-294"><path d="M384.74,194c-.48-.9-1.69-1.58-3.58-1.87A21.08,21.08,0,0,0,367,195.92c-1.5,1.19-2.21,2.38-2.18,3.4l-.06,0c1,6.51,4.1,13.56,7.44,17l.06.07,0,0h0a5.09,5.09,0,0,0,2.31,1.26,12.33,12.33,0,0,0,10.77-2.87,5,5,0,0,0,1.38-2.23h0a.13.13,0,0,1,0-.06.43.43,0,0,0,0-.11c1.18-4.66.36-12.3-2-18.46Z" style="fill:#f5f5f5"></path><path d="M381.16,192.15c4.37.66,5.1,3.42,1.64,6.16a21,21,0,0,1-14.19,3.78c-4.37-.66-5.11-3.42-1.64-6.17A21.08,21.08,0,0,1,381.16,192.15Z" style="fill:#fafafa"></path><path d="M380.07,193.58c3.46.27,3.94,2.08,1.07,4a20.69,20.69,0,0,1-11.45,3c-3.45-.27-3.93-2.07-1.07-4A20.72,20.72,0,0,1,380.07,193.58Z" style="fill:#e6e6e6"></path><path d="M380.72,196a6.17,6.17,0,0,1,1.8.37,6.15,6.15,0,0,1-1.38,1.22,20.69,20.69,0,0,1-11.45,3,6,6,0,0,1-1.79-.37,6.3,6.3,0,0,1,1.37-1.22A20.71,20.71,0,0,1,380.72,196Z" style="fill:#37474f"></path><path d="M442.09,216c1.31-9.17,3.76-18.55,3.43-38.57-.22-13.53-2.11-16.39-14.36-20.17-7.18,12.77-3.37,28.57-3.37,28.57l-1.69,23.75s-25.23,1.61-31.35-1.35c-2.12-1-5.68-7.55-8-7.14a39.11,39.11,0,0,1,.55,4.66c.18,1-4.28,3.83-9.47,4.3-3.73.34-7.56-.56-11.24-1.1a.58.58,0,0,0-.32,0,.49.49,0,0,0-.25.34,2.08,2.08,0,0,0,.68,1.85,4,4,0,0,1,1.12,1.69c.1.51,0,1,.07,1.55.19.82,1,1.32,1.52,2a14.76,14.76,0,0,1,.92,1.53,8.73,8.73,0,0,0,6.11,3.62c6.42,1.1,13.08,0,19.56.75,2,.23,3.92.61,5.88,1,4.15.72,8.32,1.38,12.51,1.9a99.4,99.4,0,0,0,15.51,1C437.75,225.86,440.79,225.12,442.09,216Z" style="fill:#9e6767"></path></g></g></g><g id="freepik--character-2--inject-294"><g id="freepik--chair--inject-294"><path d="M232.49,252.75V380a1.62,1.62,0,0,0,.89,1.46,3.67,3.67,0,0,0,3.37,0,1.62,1.62,0,0,0,.89-1.46V252.75Z" style="fill:#37474f"></path><path d="M235.07,350.94c-10.06,0-20.11-2.21-27.76-6.63s-11.79-10.28-11.79-16.6,4.19-12.21,11.79-16.6c15.31-8.84,40.21-8.84,55.52,0,7.6,4.39,11.79,10.28,11.79,16.6s-4.19,12.21-11.79,16.6h0C255.18,348.73,245.12,350.94,235.07,350.94Zm0-44.49c-9.69,0-19.38,2.13-26.76,6.39-7,4-10.8,9.3-10.8,14.87s3.84,10.86,10.8,14.87c14.75,8.52,38.76,8.52,53.52,0h0c7-4,10.79-9.3,10.79-14.87s-3.83-10.86-10.79-14.87C254.45,308.58,244.76,306.45,235.07,306.45Z" style="fill:#37474f"></path><path d="M212.51,244.58l-21.9,120.3h0a1.56,1.56,0,0,0,.88,1.56,3.42,3.42,0,0,0,1.69.42,3.38,3.38,0,0,0,1.68-.42,1.67,1.67,0,0,0,.89-1.35l21.93-120.51Z" style="fill:#37474f"></path><path d="M279.66,364.89,257.85,245.15l-.09-.57h-5.17l21.94,120.53a1.71,1.71,0,0,0,.88,1.33,3.38,3.38,0,0,0,1.68.42,3.42,3.42,0,0,0,1.69-.42A1.55,1.55,0,0,0,279.66,364.89Z" style="fill:#37474f"></path><path d="M210.09,219.37c13.59-7.85,35.63-7.85,49.22,0,6.79,3.92,10.19,9.06,10.18,14.21v6.31c0,5.14-3.39,10.29-10.18,14.21-13.59,7.85-35.63,7.85-49.22,0-6.8-3.92-10.19-9.07-10.19-14.21v-6.31C199.9,228.43,203.29,223.29,210.09,219.37Z" style="fill:#263238"></path><path d="M210.09,216.3c13.59-7.85,35.63-7.85,49.22,0,6.79,3.92,10.19,9.07,10.18,14.21v6.31c0,5.15-3.39,10.29-10.18,14.21-13.59,7.85-35.63,7.85-49.22,0-6.8-3.92-10.19-9.06-10.19-14.21v-6.31C199.9,225.37,203.29,220.22,210.09,216.3Z" style="fill:#BE9C79"></path><path d="M210.09,216.3c13.59-7.85,35.63-7.85,49.22,0,6.79,3.92,10.19,9.07,10.18,14.21v6.31c0,5.15-3.39,10.29-10.18,14.21-13.59,7.85-35.63,7.85-49.22,0-6.8-3.92-10.19-9.06-10.19-14.21v-6.31C199.9,225.37,203.29,220.22,210.09,216.3Z" style="opacity:0.5"></path><ellipse cx="234.7" cy="230.51" rx="34.8" ry="20.09" style="fill:#BE9C79"></ellipse><ellipse cx="234.7" cy="230.51" rx="34.8" ry="20.09" style="opacity:0.30000000000000004"></ellipse></g><g id="freepik--character--inject-294"><g id="freepik--bottom--inject-294"><path d="M269.63,292.58s-9.33,13.87-10.89,19.79c-1.62,6.16-3.55,7.91-3.9,14.91-.08,1.52.08,4.64,0,5.88a1.81,1.81,0,0,1-2.06,1.88c-2.82,0-6.26-6-7.25-12a167.51,167.51,0,0,1-1.31-20.6,8.72,8.72,0,0,1,1.76-4.18,12.67,12.67,0,0,1,1.71-2c1.46-2.53,3-7.6,4.45-11Z" style="fill:#af6152"></path><path d="M237.78,307a6.53,6.53,0,0,0-1.14,1.9c-.33,1.22,1.63,5.9,2.42,7.62a10.21,10.21,0,0,1,.56,7.5c-1,3.95,0,8.14,1.86,12a28,28,0,0,0,11.75,11.71c6.14,3.38,9.14.57,9.14.57s2.69-2.74,1.74-4.29S237.78,307,237.78,307Z" style="fill:#263238"></path><path d="M247.72,296.28c-.2,0-.54-.18-1.18.33-.24.19-2,2.9-3.37,4.24s-4.53,3.75-5.39,6.19c.51,5.18,4.38,9.52,4.11,14.25s-1.3,10.09,4.6,17.17,13,9.18,15.94,8.23,3.26-3.79.73-9.87c-2.69-6.45-2.75-19.23-2.75-19.24a41.74,41.74,0,0,1,.4-5.35,35.83,35.83,0,0,1,1.56-5.05,4,4,0,0,0,.15-2.4,4.05,4.05,0,0,0-1.66-1.75,18.15,18.15,0,0,0-3.37-2,6,6,0,0,0-3.83-.32c-.91.27-1.72.83-2.65,1a3.44,3.44,0,0,1-3.34-1.34,2.93,2.93,0,0,1-.27-3.38A7.16,7.16,0,0,1,247.72,296.28Z" style="fill:#455a64"></path><path d="M243.29,333.1s3.89-5,11.38-3.41,9.3,5.94,10,8.42c.81,2.95,1.22,8.08-2.17,8.83-3.65.81-7.42-.46-12.88-4.77S243.29,333.1,243.29,333.1Z" style="fill:#fafafa"></path><path d="M249.34,310.8a.77.77,0,0,0,.69.14c1.28-.35,7.67-.36,10.55,3.69.54-.27.59-1,.19-2.05-3.62-3.51-9.67-3.53-11.21-3.11a.73.73,0,0,0-.5.94A.75.75,0,0,0,249.34,310.8Z" style="fill:#fafafa"></path><path d="M260.45,319.16a2.39,2.39,0,0,0,0-2.15c-3.65-3.09-9.27-3.09-10.76-2.68a.72.72,0,0,0-.49.93.77.77,0,0,0,.28.4.75.75,0,0,0,.68.14C251.4,315.46,257.46,315.46,260.45,319.16Z" style="fill:#fafafa"></path><path d="M261.4,329.92A4.3,4.3,0,0,0,261,327c-3.64-3.37-9.55-3.38-11.07-3a.73.73,0,0,0-.5.94.81.81,0,0,0,.28.4.84.84,0,0,0,.69.14C251.76,325.15,258.8,325.16,261.4,329.92Z" style="fill:#fafafa"></path><path d="M249.6,320.52a.82.82,0,0,0,.68.14c1.27-.35,7.53-.35,10.45,3.56a2.68,2.68,0,0,0-.16-2.35c-3.66-3.09-9.28-3.09-10.76-2.69a.74.74,0,0,0-.5.94A.85.85,0,0,0,249.6,320.52Z" style="fill:#fafafa"></path><path d="M272.43,312.58s-.77,19.12,1.15,27,2.95,11.71,6.52,18.11c.78,1.4,2.65,4.07,3.29,5.2a1.9,1.9,0,0,1-.79,2.81c-2.5,1.57-11.45.2-15.64-4.55s-7.07-13.6-9.4-17.21c-.88-1.36-1.69-2.72-2.43-4.15s-.22-2.44,0-3.77c.09-.65.54-2.37.54-2.37,0-3.25-.86-8.52-1.2-11.76Z" style="fill:#c8856a"></path><path d="M251,347.26a7.06,7.06,0,0,0-.24,2.3c.25,1.31,4.19,4.86,5.7,6.13a10.66,10.66,0,0,1,3.88,6.85c.83,4.18,3.62,7.72,7.11,10.48a29.13,29.13,0,0,0,16.34,5.84c7.33.46,8.91-3.54,8.91-3.54s1.32-3.8-.27-4.84S251,347.26,251,347.26Z" style="fill:#263238"></path><path d="M255.59,332.63c-.21,0-.59.07-1,.84-.15.3-.65,3.66-1.29,5.52s-2.62,5.57-2.34,8.27c2.8,4.67,8.39,7.05,10.25,11.65s3.28,10.12,12,14.19,16.43,2.86,18.77.66,1.39-5-3.72-9.66c-5.43-4.9-11.19-17-11.2-17a46,46,0,0,1-2-5.24,36.77,36.77,0,0,1-.78-5.47,4.09,4.09,0,0,0-.93-2.34,4.23,4.23,0,0,0-2.35-.91,18.07,18.07,0,0,0-4.08-.37,6.18,6.18,0,0,0-3.77,1.4,29.6,29.6,0,0,1-2.05,2.14,3.57,3.57,0,0,1-3.76.22,3.06,3.06,0,0,1-1.77-3.07A8.17,8.17,0,0,1,255.59,332.63Z" style="fill:#455a64"></path><path d="M267.85,369.45s1.45-6.46,9.24-8.31,11.45,1.47,13.19,3.51c2.08,2.44,4.77,7.12,1.9,9.33-3.1,2.4-7.23,2.89-14.32,1.24S267.85,369.45,267.85,369.45Z" style="fill:#fafafa"></path><path d="M263.61,345.65a.83.83,0,0,0,.71-.17c1.06-.91,7.1-3.77,11.64-1.22.39-.5.12-1.19-.74-2-5-1.71-10.73,1-12,2.06a.76.76,0,0,0-.05,1.11A.82.82,0,0,0,263.61,345.65Z" style="fill:#fafafa"></path><path d="M277.85,348.6a2.49,2.49,0,0,0-1-2c-4.84-1.29-10.16,1.22-11.38,2.26a.75.75,0,0,0-.05,1.11.82.82,0,0,0,.44.25.8.8,0,0,0,.71-.17C267.64,349.14,273.37,346.43,277.85,348.6Z" style="fill:#fafafa"></path><path d="M283.57,358.36a4.61,4.61,0,0,0-1.68-2.58c-4.95-1.56-10.55,1.06-11.8,2.13A.76.76,0,0,0,270,359a.85.85,0,0,0,.45.25.8.8,0,0,0,.71-.17C272.3,358.15,279,355,283.57,358.36Z" style="fill:#fafafa"></path><path d="M268.19,354.73a.8.8,0,0,0,.71-.17c1-.89,7-3.7,11.48-1.3a2.79,2.79,0,0,0-1.2-2.15c-4.84-1.29-10.16,1.22-11.38,2.26a.75.75,0,0,0-.05,1.11A.79.79,0,0,0,268.19,354.73Z" style="fill:#fafafa"></path><path d="M255.94,198.46c6.43,7.12,27.2,28.21,35.86,40.36,2.5,3.5,2.74,7.49.27,15.56-3.35,10.94-20,47.16-20,47.16-1.65,1.9-2.93-2.62-2.93-2.62l-30.82-61.78Z" style="fill:#37474f"></path><path d="M272.7,289.32c-8-10.1-29-65.92-29-65.92s1.36,0,1.36,0c8.27-3.22,12.91-10.89,12.91-10.89-.91,6.77-4.5,10-7.12,12.4,2,2.64,11.75,15.16,19.83,24.81,2,2.43,4,5.31,3.94,9.85C274.41,270.43,273.37,287.25,272.7,289.32Z" style="fill:#263238"></path><path d="M253.47,198.82h0l-56.32.75c.58,10.43.27,15.69,1.94,21.47s3.56,12,16.14,21.8c12.1,9.43,27.16,19.69,30.13,21.94,2.24,1.7,2.39,6.91,2.18,13.58-.23,7-1.22,12.3,2.52,27.86,3.66,15.23,4.38,18.51,4.38,18.51s9.9,3.15,17.84-1.37c0,0,.71-49.47.53-58.44-.1-5,.4-7.54-4.45-14-4.15-5.56-23.33-27.5-23.33-27.5S256.58,213.13,253.47,198.82Z" style="fill:#37474f"></path></g><g id="freepik--top--inject-294"><path d="M263.11,179.78c-8.52-8.52-21.69-28.49-21.69-28.49l1.74-30.2s10.37,2.33,13.7,9.33c3.88,8.15,16.67,30.3,16.67,30.3s9.89-18.77,11.15-21.62a21.17,21.17,0,0,0,.84-3.36c1.06-5.47,4.46-10.06,8-14.2.6-.71,1.22-1.42,1.84-2.12a10.65,10.65,0,0,0,.87-1c.24-.36.45-.65,1-.48a1.54,1.54,0,0,1,.82.75,4.59,4.59,0,0,1,.15,3.69,22.9,22.9,0,0,1-1.71,3.39c-.47.85.63.7,1.14.55,2.49-.74,5.24-3.81,6.95-5.69a33.91,33.91,0,0,1,3.34-3.74,5.15,5.15,0,0,1,2.81-1.23c.7,0,1.37.15,1.34,1a3.6,3.6,0,0,1-.59,1.52,3.81,3.81,0,0,0-.66,3,8.85,8.85,0,0,1,.59,2.17,25.61,25.61,0,0,1-.57,2.82,21,21,0,0,0,.36,2.42,7.07,7.07,0,0,1-1.05,2.75,23,23,0,0,1-3.42,5,43.88,43.88,0,0,1-6.91,6.07,12.24,12.24,0,0,0-3.66,3.54,26.34,26.34,0,0,0-1.91,4.78c-.66,2.05-1.27,4.11-2,6.15-7.12,22.13-10.23,26.39-13.39,28.6C276.66,187.06,271.63,188.3,263.11,179.78Z" style="fill:#c8856a"></path><path d="M279.4,149.5s-.39,4.53,4.68,8,7.3,2.14,7.3,2.14a107.28,107.28,0,0,1-5.63,16.76c-2.94,6.41-5.39,10.37-10.12,10.66s-9.41-3.22-15.88-10.43-18.91-25.53-18.91-25.53l2.83-29.9a27.91,27.91,0,0,1,8.31,3.11c3.27,2.13,5.52,5.52,12,18.36s9.35,16.3,9.35,16.3Z" style="fill:#37474f"></path><path d="M273.38,159c-2.68,4.64-4.72,12-3.55,16.62C268,172.24,266.7,164.12,272,157Z" style="fill:#263238"></path><path d="M295.65,129.47c.32,2.5,0,6.79-2.3,9.22a5.72,5.72,0,0,0,2.73-4A7.91,7.91,0,0,0,295.65,129.47Z" style="fill:#af6152"></path><path d="M258.07,150.3c1.57-19.64-5.88-27.81-17.11-29.68-6.46-1.07-19.83-1.9-19.83-1.9-4.59,1-20.6,5.84-20.6,5.84s-5.21,17.1-5.21,40.8c0,12.66.84,33.1,1.9,47.14,12.59,8,56.52,2.06,62.89-9.85C255.55,193.43,256.9,164.88,258.07,150.3Z" style="fill:#263238"></path><path d="M262.79,133.52c-2.45,4.95-3.38,18.9.94,17.25,8.56-4.1,14.66-20.27,9.42-27.59s-12.09-4.85-11.44-1.79S267.18,128.34,262.79,133.52Z" style="fill:#BE9C79"></path><path d="M262.79,133.52c-2.45,4.95-3.38,18.9.94,17.25,8.56-4.1,14.66-20.27,9.42-27.59s-12.09-4.85-11.44-1.79S267.18,128.34,262.79,133.52Z" style="fill:#fff;opacity:0.4"></path><path d="M262.79,133.52c-2.45,4.95-3.38,18.9.94,17.25,8.56-4.1,14.66-20.27,9.42-27.59s-12.09-4.85-11.44-1.79S267.18,128.34,262.79,133.52Z" style="fill:#BE9C79;opacity:0.2"></path><path d="M264.65,122.3c2.47,1.82,5.24,6.69,1.53,12.89-1.64,2.72-3.21,2.52-4.47,1.44a16.19,16.19,0,0,1,1.08-3.11c4.39-5.18-.43-9-1.08-12.13a2.17,2.17,0,0,1,1.2-2.3C262.12,119.81,262.94,121,264.65,122.3Z" style="fill:#BE9C79;opacity:0.48"></path><path d="M258.55,136.35c2.86,1.4,5.17,11.23,1,15.25-8.36,7.23-18.79-1.79-15.91-14.51,2.6-11.46,11-13.57,11.6-10.63C255.77,129.18,253.14,135.94,258.55,136.35Z" style="fill:#BE9C79"></path><path d="M258.55,136.35c2.86,1.4,5.17,11.23,1,15.25-8.36,7.23-18.79-1.79-15.91-14.51,2.6-11.46,11-13.57,11.6-10.63C255.77,129.18,253.14,135.94,258.55,136.35Z" style="fill:#fff;opacity:0.4"></path><path d="M255.25,126.46a5.78,5.78,0,0,1,.07,1c0-1-1.41-1.47-3.59,0s-5.85,8-5.18,14.33,7.73,10.48,11,9.64l-.82,1.94c-7.68,3.4-15.68-5-13.11-16.31S254.69,123.52,255.25,126.46Z" style="fill:#BE9C79;opacity:0.48"></path><path d="M258.55,136.35a11.32,11.32,0,0,1,1,12.32c-2.76,5.25-6.57,5.49-6.57,5.49s2.07,1.67,6.79-.1,9.87-5.66,11.35-11.54-6.44-9.92-8.32-9.41-4.69,2-5.2,3.08A1.51,1.51,0,0,0,258.55,136.35Z" style="fill:#BE9C79"></path><path d="M258.55,136.35a11.32,11.32,0,0,1,1,12.32c-2.76,5.25-6.57,5.49-6.57,5.49s2.07,1.67,6.79-.1,9.87-5.66,11.35-11.54-6.44-9.92-8.32-9.41-4.69,2-5.2,3.08A1.51,1.51,0,0,0,258.55,136.35Z" style="fill:#fff;opacity:0.4"></path><path d="M258.55,136.35a1.51,1.51,0,0,1-1-.16c.51-1,3.32-2.56,5.2-3.08.78-.21,2.6.37,4.36,1.53a4.29,4.29,0,0,0-3.51-.41c-1,.46-3.13,1.6-1.87,4.5,1.33,3.07,1.05,7.43-.57,11s-.86,3.69,1.33,3a21.93,21.93,0,0,1-2.77,1.27c-4.72,1.77-6.79.1-6.79.1s3.81-.24,6.57-5.49A11.32,11.32,0,0,0,258.55,136.35Z" style="fill:#BE9C79;opacity:0.39"></path><path d="M269.51,144.1c-1.56-.16-3.26.79-4.49,1.65-1.42,1-2.74,2.11-4.22,3.05a21,21,0,0,1-5.53,2.78,11,11,0,0,1-4.55.44,8.12,8.12,0,0,1-5.73-3.24c-1.11,1.16-2,3.48-2.62,5.31-.46,1.34-1,3.29-2,4.39-2,2.13-13.57,9.16-26.12,15.56,0,0-4.69-14.58-6-21.33,0,0-1-15.93-8.09-27.44-13.41,4.38-15.94,11.75-11.44,30.18,4.16,17,7.3,26.2,10.27,31.58,7,12.79,13.39,10.37,24.53,3.54s21-17.52,26.86-21.79c3.18-2.3,5.25-2.6,7-3.34a34.19,34.19,0,0,0,7.65-4.94,16,16,0,0,0,2.67-2.86c.67-1.1.19-2.52.42-3.72a1.5,1.5,0,0,1,.15-.42,10.76,10.76,0,0,0,.6-1.12,4.19,4.19,0,0,0,.13-2,4.42,4.42,0,0,1,.57-3.29C269.93,146.34,271,144.26,269.51,144.1Z" style="fill:#c8856a"></path><path d="M209.31,149.43l5.62,23.17,12.78-5.86s-1.65,6.36,0,10.71a12.39,12.39,0,0,0,5.35,6.23s-9.33,8.14-15.7,11.58-10.22,2.43-12.55,1.07-7.48-7.55-9.1-12.3-6.07-19.32-7.18-24.58-4.75-17.8-1.9-24.38,9.08-9.1,13.9-10.51C206.23,128.7,209.31,149.43,209.31,149.43Z" style="fill:#37474f"></path><path d="M214.93,172.6l-.16.08c-7,3.4-8.66,10.54-8.75,13.94-.81-5-.39-11.56,8.33-16.42Z" style="fill:#263238"></path><g id="freepik--Head--inject-294"><path d="M216.94,102.31l-.35-5.9s3.76-5.19,4.14-9.43c.5-5.46-.66-7.68-.66-7.68-1.89-1.44-6.16-5-8.6-5.2-3.49-.3-5.56,4.83-6,6.68-.78,3.2-.53,9.28.15,12.48a20.64,20.64,0,0,0,3.41,8.63c1.93,2.87,4.29,5.42,6.44,8.13.18.23.4.47.68.45s.53-.4.61-.74C217.36,107.37,217,104.72,216.94,102.31Z"></path><path d="M211.54,73.73C209.46,82.21,227,100.06,235.68,100s14.68-11.62,14.59-20.34-3.7-13.47-17-15.94C224.72,62.1,213.48,65.86,211.54,73.73Z"></path><path d="M209.67,104.69c3.49,1.33,5.35-.93,5.35-.93l.67,18.08a13.88,13.88,0,0,0,6.37,6.08c4.34,1.88,9.85,2.74,13.47,1.36s5.54-4.22.29-8.67l-.2-5.35a32.2,32.2,0,0,0,6.14-.08c3.88-.63,6.3-3.73,7.44-7.94,1.82-6.77,1.31-16.92-1.38-30-4.37-3.34-18.66-3.77-27.75,2.08.49,7.72-.69,10.39-1,11.56s-1.74,4.23-2.73,4.39c-1.86.29-2.16-1.72-3.36-3s-5.75-1.94-7.66,2.17S207,103.67,209.67,104.69Z" style="fill:#c8856a"></path><path d="M235.62,115.26c-6.19-.58-13.9-3.4-15.89-6.22a20.94,20.94,0,0,1-2.74-5.13s.26,4.88,1.78,7.35,7.27,6.64,17,7.23Z" style="fill:#af6152"></path><path d="M233.34,92.57a1.77,1.77,0,0,1-1.72,1.82,1.81,1.81,0,1,1,1.72-1.82Z" style="fill:#263238"></path><path d="M232.9,85.46l-4.1,1.1a2.24,2.24,0,0,1,1.55-2.67A2.07,2.07,0,0,1,232.9,85.46Z" style="fill:#263238"></path><path d="M247.53,86.1l-4.15-1a2,2,0,0,1,2.52-1.59A2.25,2.25,0,0,1,247.53,86.1Z" style="fill:#263238"></path><path d="M247.82,92.57a1.74,1.74,0,1,1-1.75-1.8A1.77,1.77,0,0,1,247.82,92.57Z" style="fill:#263238"></path><path d="M223.23,86.56l-13.39,4.76a4.38,4.38,0,0,1,3.86,1.78l9.48-3.6Z" style="fill:#455a64"></path><path d="M254,85.92l-.87-.09c-2.82-.26-6.51-.28-8.75.45-2.8.92-3.8,1.9-5.35,1.94s-2.68-.93-5.64-1.74c-2.37-.64-6.32-.48-9.35-.11l-.94.12a1.6,1.6,0,0,0-1.07,1.61,3.52,3.52,0,0,0,.87,1.82,2.24,2.24,0,0,1,.29.73c.3,1.27.46,3.71,1.05,5a6.42,6.42,0,0,0,1.16,1.81,5.88,5.88,0,0,0,.6.52l.35.24a6.27,6.27,0,0,0,1,.49l.18,0a1.15,1.15,0,0,0,.28.08,1.37,1.37,0,0,0,.29.07,5.21,5.21,0,0,0,.92.14l.4,0H230c3.85-.05,5.47-2,6.46-3.89s.8-4.65,2.56-4.67h.17l.16,0c1.3.29,1.1,2.79,1.89,4.56a7.41,7.41,0,0,0,1.22,2c.09.1.19.19.3.29a1.14,1.14,0,0,0,.16.14l.15.14a.83.83,0,0,1,.15.11l.17.11a.57.57,0,0,0,.13.08.28.28,0,0,0,.09.06,5.6,5.6,0,0,0,1.51.59l.15,0a8.24,8.24,0,0,0,1.87.15,5.63,5.63,0,0,0,5.48-3.61,33.89,33.89,0,0,0,1.18-5.1,1.57,1.57,0,0,1,.35-.67,3.74,3.74,0,0,0,.84-1.89C255,86.71,254.51,86,254,85.92Zm-18.54,7.53a5.94,5.94,0,0,1-1.39,2.69,5.46,5.46,0,0,1-4.21,1.61,4.46,4.46,0,0,1-4-1.88l-.13-.19-.11-.19a1,1,0,0,1-.1-.18.59.59,0,0,1-.07-.16.75.75,0,0,1-.07-.12s0-.08-.05-.12l-.08-.19c-.08-.19-.13-.38-.19-.56h0c0-.11-.07-.23-.09-.34s-.09-.38-.13-.54,0-.08,0-.1,0-.07,0-.1c-.27-1.34-.57-4,.1-4.59s2.42-1.25,5.28-1l.3,0c.44,0,.87.12,1.3.21.18,0,.35.08.51.12a10.94,10.94,0,0,1,1.26.4l.39.16.42.19.08,0,.16.08a2.67,2.67,0,0,1,.84.69C236,90.19,235.84,91.94,235.49,93.45Zm16.68-.88c-.25,1.05-.76,3.32-2.79,4.35a4.88,4.88,0,0,1-2.13.51A4.48,4.48,0,0,1,243,95.49s0,0,0,0a.38.38,0,0,1-.08-.11l-.08-.15,0-.07c0-.08-.08-.15-.1-.22a1.45,1.45,0,0,1-.11-.25.27.27,0,0,1-.05-.11l0-.07,0-.1a.24.24,0,0,1,0-.08,8.65,8.65,0,0,1-.26-1c-.26-1.49-.39-3.23.17-4.06s2.67-1.79,4.71-2.07a10.93,10.93,0,0,1,1.31-.13h1.16l.35,0c.24,0,.46.07.66.11l.16,0h0l.1,0,.16,0,.19,0a3.24,3.24,0,0,1,.31.13l.06,0a3,3,0,0,1,.69.44C252.86,88.56,252.46,91.22,252.17,92.57Z" style="fill:#455a64"></path><path d="M245.48,99.05l-6.27,1.61-1-9.82a1.21,1.21,0,0,1,.82-.28h.16l.16,0a.74.74,0,0,1,.36.16C239.78,90.8,245.48,99.05,245.48,99.05Z" style="fill:#af6152"></path><path d="M232.4,103.13l7.27,1.56a3.65,3.65,0,0,1-4.34,3A3.89,3.89,0,0,1,232.4,103.13Z" style="fill:#af6152"></path><path d="M233.28,104.31a3.85,3.85,0,0,0-.9,0,3.83,3.83,0,0,0,3,3.33,3.43,3.43,0,0,0,1.19,0A3.4,3.4,0,0,0,233.28,104.31Z" style="fill:#ffa8a7"></path></g></g></g></g><g id="freepik--character-1--inject-294"><g id="freepik--chair--inject-294"><path d="M97.8,288.84V416.07a1.6,1.6,0,0,0,.88,1.46,3.42,3.42,0,0,0,1.69.42,3.38,3.38,0,0,0,1.68-.42,1.64,1.64,0,0,0,.9-1.46V288.84Z" style="fill:#37474f"></path><path d="M100.37,387c-10.05,0-20.1-2.21-27.76-6.63s-11.79-10.29-11.79-16.6S65,351.59,72.61,347.2c15.31-8.83,40.22-8.83,55.52,0,7.6,4.39,11.79,10.29,11.79,16.61s-4.19,12.21-11.79,16.6h0C120.48,384.83,110.42,387,100.37,387Zm0-44.5c-9.69,0-19.38,2.13-26.76,6.39-7,4-10.79,9.3-10.79,14.88s3.83,10.85,10.79,14.87c14.76,8.52,38.77,8.52,53.52,0h0c7-4,10.8-9.3,10.8-14.87s-3.84-10.86-10.8-14.88C119.76,344.67,110.06,342.54,100.37,342.54Z" style="fill:#37474f"></path><path d="M77.81,280.68,55.92,401h0a1.56,1.56,0,0,0,.88,1.56,3.38,3.38,0,0,0,1.68.42,3.42,3.42,0,0,0,1.69-.42,1.67,1.67,0,0,0,.88-1.35L83,280.68Z" style="fill:#37474f"></path><path d="M145,401l-21.8-119.73-.09-.57H117.9l21.93,120.53a1.72,1.72,0,0,0,.88,1.33,3.59,3.59,0,0,0,3.37,0A1.56,1.56,0,0,0,145,401Z" style="fill:#37474f"></path><path d="M75.39,255.46c13.59-7.84,35.63-7.84,49.22,0,6.8,3.93,10.19,9.07,10.19,14.21V276c0,5.14-3.39,10.28-10.19,14.21C111,298,89,298,75.39,290.2c-6.8-3.93-10.19-9.07-10.19-14.21v-6.32C65.2,264.53,68.59,259.39,75.39,255.46Z" style="fill:#263238"></path><path d="M75.39,252.4c13.59-7.85,35.63-7.85,49.22,0,6.8,3.92,10.19,9.06,10.19,14.2v6.32c0,5.14-3.39,10.29-10.19,14.21C111,295,89,295,75.39,287.13c-6.8-3.92-10.19-9.07-10.19-14.21V266.6C65.2,261.46,68.59,256.32,75.39,252.4Z" style="fill:#BE9C79"></path><path d="M75.39,252.4c13.59-7.85,35.63-7.85,49.22,0,6.8,3.92,10.19,9.06,10.19,14.2v6.32c0,5.14-3.39,10.29-10.19,14.21C111,295,89,295,75.39,287.13c-6.8-3.92-10.19-9.07-10.19-14.21V266.6C65.2,261.46,68.59,256.32,75.39,252.4Z" style="opacity:0.5"></path><ellipse cx="100" cy="266.6" rx="34.8" ry="20.09" style="fill:#BE9C79"></ellipse><ellipse cx="100" cy="266.6" rx="34.8" ry="20.09" style="opacity:0.30000000000000004"></ellipse></g><g id="freepik--character--inject-294"><g id="freepik--bottom--inject-294"><path d="M159.1,303.79s-22,31.11-25.86,37.59c-2.82,4.81-5,8.37-6.11,12.35s-1,10.42-.74,13.68c0,0,1.22,8.82-.28,8.59s-12.69-6.52-16.35-11.22-1.37-9,2.16-17.37,9.63-19.86,9.63-19.86a6.12,6.12,0,0,0,1.35-.89c2.09-1.64,12.16-27.41,14.36-33.3Z" style="fill:#f0997a"></path><path d="M128.77,314.65l8.35,20.73c2.73-4.07,6.37-9.33,9.9-14.4,0-6.17.06-13.93-.12-19.57,0-1.28-.09-2.45-.17-3.53l-9.47-4.52C136,296.71,132.2,306.52,128.77,314.65Z" style="fill:#9e6767"></path><path d="M111.51,334.21c-1,1.83-1.13,4.76-2.56,7.76a57.69,57.69,0,0,1-5.81,9.7L100,355.92l1.15.85,5.68-7.75c1.73-2.36,3.55-3.76,4.86-3.19C111.71,345.83,117.1,338.3,111.51,334.21Z" style="fill:#BE9C79"></path><path d="M111.51,334.21c-1,1.83-1.13,4.76-2.56,7.76a57.69,57.69,0,0,1-5.81,9.7L100,355.92l1.15.85,5.68-7.75c1.73-2.36,3.55-3.76,4.86-3.19C111.71,345.83,117.1,338.3,111.51,334.21Z" style="opacity:0.30000000000000004"></path><path d="M122.43,326.71c-2.17,1.45-5.5,2.07-8.6,4.42a7.91,7.91,0,0,0-2.68,4c.22,1.62.58,2.39.78,3.55a11.91,11.91,0,0,1,.15,5.73,87.62,87.62,0,0,1-3.88,11.4c-1.49,3.68-2.56,5.78-1,9.27,1.25,2.71,6.77,8.69,11,12.08,5.72,4.61,10.4,3.31,9.79-.57s-1.26-8.16-1.6-9.14a13.28,13.28,0,0,0-6.12-3.16c-4.37-.93-6.82.26-9.09-4-2.06-3.85.26-11.34,6.53-19.63C124.83,331.22,122.43,326.71,122.43,326.71Z" style="fill:#BE9C79"></path><path d="M122.43,326.71c-2.17,1.45-5.5,2.07-8.6,4.42a7.91,7.91,0,0,0-2.68,4c.22,1.62.58,2.39.78,3.55a11.91,11.91,0,0,1,.15,5.73,87.62,87.62,0,0,1-3.88,11.4c-1.49,3.68-2.56,5.78-1,9.27,1.25,2.71,6.77,8.69,11,12.08,5.72,4.61,10.4,3.31,9.79-.57s-1.26-8.16-1.6-9.14a13.28,13.28,0,0,0-6.12-3.16c-4.37-.93-6.82.26-9.09-4-2.06-3.85.26-11.34,6.53-19.63C124.83,331.22,122.43,326.71,122.43,326.71Z" style="opacity:0.15"></path><path d="M153.71,251.87c-13-12.49-26.43-23.72-26.43-23.72l-20.59,23.67,15.19,15.48,20.26,15.64s-2.21,1.68-5,9.29c-.72,2-5,12.95-5.65,14.79,3.23,5.24,10.67,10.64,18.26,10.08,0,0,8.26-11.21,18-24.65,8.51-11.75,5.35-18.12,4.18-19.93C168.78,267.68,166.6,264.29,153.71,251.87Z" style="fill:#455a64"></path><path d="M142.14,282.94s-2.21,1.68-5,9.29c-.72,2-5,12.95-5.65,14.79,2.85,4.62,9,9.35,15.58,10,0-5.31,0-11.14-.15-15.64C146.58,290.54,144.82,287.64,142.14,282.94Z" style="fill:#37474f"></path><path d="M142.14,282.94c-1.21-1.7-19.51-29.37-19.51-29.37l-5.17,2.94,4.42,10.79Z" style="fill:#37474f"></path><path d="M144,326.28c.25,21.33.47,35,1.32,40.5s1.89,11,3.38,14.84a37.13,37.13,0,0,0,6.49,10.21s6.2,6.4,4.85,7.09-14.08,2.25-19.82.62-6.43-6.46-8.52-15.28-4-21.71-4-21.71a6.35,6.35,0,0,0,.56-1.51c.72-2.57-2.52-12.64-4.23-18.69Z" style="fill:#ffbda7"></path><path d="M123.56,373.85c.26,2.08,1.91,4.52,2.52,7.77a57.12,57.12,0,0,1,1,11.26v5.28h1.43v-9.6c0-2.93.63-5.14,2-5.45C130.59,383.11,130.49,373.85,123.56,373.85Z" style="fill:#BE9C79"></path><path d="M123.56,373.85c.26,2.08,1.91,4.52,2.52,7.77a57.12,57.12,0,0,1,1,11.26v5.28h1.43v-9.6c0-2.93.63-5.14,2-5.45C130.59,383.11,130.49,373.85,123.56,373.85Z" style="opacity:0.30000000000000004"></path><path d="M127.93,361.35c-.89,2.46-3.21,4.92-4.31,8.65a7.82,7.82,0,0,0,.17,4.78c1.14,1.18,1.88,1.59,2.73,2.4a11.93,11.93,0,0,1,3.51,4.54,86.9,86.9,0,0,1,3.6,11.48c1,3.85,1.37,6.18,4.72,8,2.61,1.45,10.6,3,16,3.26,7.33.35,10.34-3.47,7.56-6.24s-5.85-5.84-6.7-6.43a13.39,13.39,0,0,0-6.8,1.07c-4.08,1.83-5.35,4.24-9.7,2.16-3.93-1.88-6.49-9.3-6.33-19.69C132.54,363.57,127.93,361.35,127.93,361.35Z" style="fill:#BE9C79"></path><path d="M114.61,302.7c2.69,3.69,2.78,3.69,2.78,9.47a72.09,72.09,0,0,0,.89,12.49c1,6,4.8,15,8.24,27.17,5.1,2.51,14.15.71,18.06-3,0,0-.09-44.3-.58-52.53a29.27,29.27,0,0,0-5.23-15C130.4,268.11,118,252.81,118,252.81a176.56,176.56,0,0,1,6.17-19.56l-53.47-2.93c-2.48,10.16-4,13.22-1.81,23.14,2.14,9.45,8.31,17,21.82,27.7,10.92,8.62,21.84,18.77,23.86,21.54" style="fill:#455a64"></path><path d="M128.18,244.8a18,18,0,0,1-9.51,8.88l1.61,1.94S126.53,253.13,128.18,244.8Z" style="fill:#37474f"></path></g><g id="freepik--top--inject-294"><path d="M126.27,152.72c2.2-10.33-10.89-9.65-14.25-16.36l10.38-6.92c6.37-3.73,5.72-12.19,4-16.54-3.89-9.72-14.68-13-21.28-13.12-12.52-.21-18.5,3.25-19.55,9.77-4.62-.2-11.45,4.71-11.71,18.7,0,2.79.06,6.2-1.48,8.59C71,138.94,69,141,68.1,143.35c-1.55,4-.35,9.73,4.62,10.44-.35-1.06-.92-2.46,0-3.44.25,5,8.76,7.91,12.74,6.65a4.1,4.1,0,0,1-2.15-2.45c6.37,3.26,11.88,1.91,18.41-.51,1.17-.43,2-.62,5.68.36,2.25.6,5,.89,9.35-1.37C119.49,151.61,123.76,149.49,126.27,152.72Z" style="fill:#37474f"></path><path d="M115.16,156.38c10-.34,12.76.61,16.08,5.19,4.41,6.08,13,30.45,15.59,42.55.71,3.31-14.75,10.29-14.75,10.29l-8.86-21.89Z" style="fill:#f0997a"></path><g id="freepik--Chest--inject-294"><path d="M91.3,157.42s2-.73,19-1h4.86s10.86,10,13,13.79,8.83,12.33.71,24.56l-1.19,23.74,5,14.27s.28,10.46-15.2,12.46-32.85-8.43-32.85-8.43A44.17,44.17,0,0,1,68,241.61a116.82,116.82,0,0,1,2.9-13.43c3.09-9.87,6.22-12.15,6.49-16.93s-1.92-15.55-1.92-15.55,8.14-1.52,9.87-11.6a37.78,37.78,0,0,0-3.82-23.37Z" style="fill:#f0f0f0"></path></g><g id="freepik--head--inject-294"><path d="M88.15,141.88a6.36,6.36,0,0,1-5.75-2.2c-3-3.34-3.3-6.73-1.88-9,1.16-1.86,4-3,6-1.78s2.21,2.45,3,4,4,1.4,4.7-4.73c.71-5.71,1.58-10.95,4.38-13.53,4.18-3.84,9-2.14,10.69.14a5.55,5.55,0,0,1,7.56-2.16c2.8,1.51,4.42,4.68,5.39,15.52,1,11-1.33,18.88-3.86,20.74-1.93,1.4-4.37,1.7-8.52,1.88l.43,6.46s7.34,14.77,7.31,24.24c0,0-3.67-5.87-14.3-14.48L91.78,157.6l-1.26-17.45S90.29,141.49,88.15,141.88Z" style="fill:#ffbda7"></path><path d="M105.36,129.06a1.84,1.84,0,0,1-2.29,1.26,1.89,1.89,0,1,1,2.29-1.26Z" style="fill:#263238"></path><path d="M103.53,126.63c-1.15,0-1.83,1.57-2.93,1a1.66,1.66,0,0,0,2.23.91C103.35,128.23,103.53,126.63,103.53,126.63Z" style="fill:#263238"></path><path d="M119.59,123.89l-3.88-2a2.09,2.09,0,0,1,2.87-1A2.3,2.3,0,0,1,119.59,123.89Z" style="fill:#263238"></path><path d="M115.05,128.49a1.82,1.82,0,1,0,1.06-2.41A1.86,1.86,0,0,0,115.05,128.49Z" style="fill:#263238"></path><path d="M116.77,126c1.14,0,1.89,1.48,3,.81a1.64,1.64,0,0,1-2.17,1C117,127.56,116.77,126,116.77,126Z" style="fill:#263238"></path><path d="M103.88,122.51l-4,2.47a2.25,2.25,0,0,1,.66-3.19A2.45,2.45,0,0,1,103.88,122.51Z" style="fill:#263238"></path><path d="M104,138.2l6.09,1.72a3.17,3.17,0,0,1-4.2,2.08A3,3,0,0,1,104,138.2Z" style="fill:#9e6767"></path><path d="M107.61,142.12a3.31,3.31,0,0,0-3.43-2.83l-.31.05a2.78,2.78,0,0,0,2,2.66A3.48,3.48,0,0,0,107.61,142.12Z" style="fill:#f0997a"></path><polygon points="109.06 125.13 110.28 135.99 116.18 133.73 109.06 125.13" style="fill:#f0997a"></polygon><path d="M109.9,150.73a38.59,38.59,0,0,1-11.79-2.19c-1.38-.55-3.29-3-4.86-5.69,0,0,1.2,5.41,4.2,7.2,4.56,2.72,12.62,3.18,12.62,3.18Z" style="fill:#f0997a"></path></g><path d="M92,142.35a5.08,5.08,0,0,1-2.8,4.85,4.67,4.67,0,0,1-1.9.52A5.07,5.07,0,0,1,82.68,140a4.12,4.12,0,0,0,.44.41A4.29,4.29,0,0,0,84,141a3.32,3.32,0,0,0-.47,1.93,3.4,3.4,0,0,0,3.64,3.16,3.35,3.35,0,0,0,2-.81,3.39,3.39,0,0,0-2.42-6,.81.81,0,0,1-.88-.77.82.82,0,0,1,.75-.88A5.08,5.08,0,0,1,92,142.35Z" style="fill:#BE9C79"></path><path d="M92,142.35a5.08,5.08,0,0,1-2.8,4.85,4.67,4.67,0,0,1-1.9.52A5.07,5.07,0,0,1,82.68,140a4.12,4.12,0,0,0,.44.41A4.29,4.29,0,0,0,84,141a3.32,3.32,0,0,0-.47,1.93,3.4,3.4,0,0,0,3.64,3.16,3.35,3.35,0,0,0,2-.81,3.39,3.39,0,0,0-2.42-6,.81.81,0,0,1-.88-.77.82.82,0,0,1,.75-.88A5.08,5.08,0,0,1,92,142.35Z" style="opacity:0.2"></path><g id="freepik--Coffee--inject-294"><path d="M157,213a7.42,7.42,0,0,0,2.89-.41c1.27-.47,2.39-1.84,3.4-4.2.85-2,2.22-6.35,1.25-8.6-1.22-2.85-4.68-2.95-7-3-.28,0-.54,0-.79,0l-.13,2.73c.27,0,.71.1,1,.11,1.29,0,4.14.48,4.45,1.21,1.07,1.77-1.66,8.57-2.85,9.31a10.71,10.71,0,0,1-4.44,0l-.9,2.28A10.61,10.61,0,0,0,157,213Z" style="fill:#BE9C79"></path><g style="opacity:0.2"><path d="M157,213a7.42,7.42,0,0,0,2.89-.41c1.27-.47,2.39-1.84,3.4-4.2.85-2,2.22-6.35,1.25-8.6-1.22-2.85-4.68-2.95-7-3-.28,0-.54,0-.79,0l-.13,2.73c.27,0,.71.1,1,.11,1.29,0,4.14.48,4.45,1.21,1.07,1.77-1.66,8.57-2.85,9.31a10.71,10.71,0,0,1-4.44,0l-.9,2.28A10.61,10.61,0,0,0,157,213Z"></path></g><path d="M132.91,193.48c.27-1.17,1.41-2.31,3.45-3.22a24.6,24.6,0,0,1,17.12-.18c2.06.87,3.23,2,3.52,3.14l.07.42c.88,7.64-.39,16.1-3.06,21a.31.31,0,0,0,0,.1.25.25,0,0,0,0,.07h0A5.77,5.77,0,0,1,151.7,217a14.36,14.36,0,0,1-13,.13,5.8,5.8,0,0,1-2.25-2.08h0l0-.07-.07-.11c-2.77-4.87-4.22-13.34-3.5-21Z" style="fill:#BE9C79"></path><g style="opacity:0.1"><path d="M132.91,193.48c.27-1.17,1.41-2.31,3.45-3.22a24.6,24.6,0,0,1,17.12-.18c2.06.87,3.23,2,3.52,3.14l.07.42c.88,7.64-.39,16.1-3.06,21a.31.31,0,0,0,0,.1.25.25,0,0,0,0,.07h0A5.77,5.77,0,0,1,151.7,217a14.36,14.36,0,0,1-13,.13,5.8,5.8,0,0,1-2.25-2.08h0l0-.07-.07-.11c-2.77-4.87-4.22-13.34-3.5-21Z" style="fill:#fff"></path></g><path d="M136.36,190.26c-4.71,2.11-4.67,5.44.08,7.44a24.6,24.6,0,0,0,17.12-.18c4.71-2.11,4.67-5.44-.08-7.44A24.6,24.6,0,0,0,136.36,190.26Z" style="fill:#BE9C79"></path><path d="M136.36,190.26c-4.71,2.11-4.67,5.44.08,7.44a24.6,24.6,0,0,0,17.12-.18c4.71-2.11,4.67-5.44-.08-7.44A24.6,24.6,0,0,0,136.36,190.26Z" style="fill:#fff;opacity:0.30000000000000004"></path><path d="M138,191.53c-3.8,1.39-3.78,3.56.05,4.86a24.22,24.22,0,0,0,13.81-.14c3.8-1.39,3.78-3.56,0-4.86A24.22,24.22,0,0,0,138,191.53Z" style="fill:#BE9C79"></path><path d="M138.06,194.47a7.48,7.48,0,0,0-1.91,1,7.38,7.38,0,0,0,1.93.94,24.22,24.22,0,0,0,13.81-.14,7.17,7.17,0,0,0,1.91-1,7.38,7.38,0,0,0-1.93-.94A24.22,24.22,0,0,0,138.06,194.47Z" style="fill:#263238"></path></g><path d="M157.3,200.27c2.41-.6,3.77,2,3.41,6.47s-3.3,12.64-10.12,10.29c-2.65-.91-4.4-5.45-1.51-7.33a46.11,46.11,0,0,0,6.74-5A6.09,6.09,0,0,0,157.3,200.27Z" style="fill:#f0997a"></path><path d="M77.09,223.88c-2.11-6.57-5.41-14.85-8.75-32-3.63-18.62-.38-27.38,13.22-31.12C88.12,172.57,88,190,88,190c1,6.81,5.94,25.1,5.94,25.1,14-1.58,28.75-4.33,31.39-5.61,1.36-.67,2.53-2.31,3.43-3.4,1.23-1.49,2.63-3.44,4.08-4.14a8.62,8.62,0,0,0,4.46,5.14,10.78,10.78,0,0,0,4.42,1.19c1.49.14,3.88,0,9.55-1.46,1.25-.32,2.82-.62,3.9.3s-.57,2-1.09,2.73c-.63.94.09,2-.21,3-.21.7-.82.86-.87,1.66s.24,1.47-.19,2a11.5,11.5,0,0,1-5.19,3.49,33.75,33.75,0,0,1-8.9,1.93c-1.85.1-3.89-.35-7.68.68-7,1.93-19.82,8.44-32.81,10.94C85.37,236.08,80.91,235.75,77.09,223.88Z" style="fill:#ffbda7"></path></g></g></g></svg>